<svg width="24" height="18" viewBox="0 0 24 18" fill="none" xmlns="http://www.w3.org/2000/svg">
<path d="M2 2.82941H11.5379C12.2257 2.82941 12.8832 2.54603 13.3554 2.04597L14.3716 0.970065C14.6549 0.670031 15.0494 0.5 15.4621 0.5H19.1379C19.5506 0.5 19.9451 0.670031 20.2284 0.970065L21.4642 2.27855C21.7963 2.63016 22.2586 2.82941 22.7422 2.82941C23.1607 2.82941 23.5 3.1687 23.5 3.58723V16C23.5 16.8284 22.8284 17.5 22 17.5H2C1.17157 17.5 0.5 16.8284 0.5 16V4.32941C0.5 3.50098 1.17157 2.82941 2 2.82941Z" fill="#E6EAFF" stroke="#96A7FF"/>
</svg>
